<svg width="400" height="300" viewBox="0 0 400 300" fill="none" xmlns="http://www.w3.org/2000/svg">
  <!-- Background -->
  <rect width="400" height="300" fill="#1F2937"/>
  
  <!-- Printer machine -->
  <rect x="50" y="100" width="300" height="120" rx="10" fill="#374151"/>
  <rect x="60" y="90" width="280" height="20" rx="5" fill="#4B5563"/>
  
  <!-- Screen -->
  <rect x="280" y="110" width="60" height="40" rx="5" fill="#3B82F6"/>
  <rect x="285" y="115" width="50" height="30" rx="3" fill="#1E40AF"/>
  
  <!-- Paper tray -->
  <rect x="70" y="80" width="200" height="15" rx="3" fill="#6B7280"/>
  
  <!-- Paper output -->
  <rect x="100" y="220" width="200" height="8" rx="2" fill="#FFFFFF"/>
  <rect x="110" y="228" width="180" height="8" rx="2" fill="#F3F4F6"/>
  <rect x="120" y="236" width="160" height="8" rx="2" fill="#E5E7EB"/>
  
  <!-- Control buttons -->
  <circle cx="80" cy="130" r="8" fill="#10B981"/>
  <circle cx="100" cy="130" r="8" fill="#EF4444"/>
  <circle cx="120" cy="130" r="8" fill="#F59E0B"/>
  
  <!-- Animated elements -->
  <rect x="150" y="70" width="100" height="3" rx="1" fill="#3B82F6" opacity="0.8">
    <animate attributeName="width" values="0;100;0" dur="2s" repeatCount="indefinite"/>
  </rect>
  
  <!-- Floating ink drops -->
  <circle cx="200" cy="60" r="3" fill="#8B5CF6" opacity="0.7">
    <animate attributeName="cy" values="60;80;60" dur="1.5s" repeatCount="indefinite"/>
  </circle>
  <circle cx="220" cy="65" r="2" fill="#EC4899" opacity="0.7">
    <animate attributeName="cy" values="65;85;65" dur="1.8s" repeatCount="indefinite"/>
  </circle>
</svg>